<svg width="12" height="15" viewBox="0 0 12 15" fill="none" xmlns="http://www.w3.org/2000/svg">
<path d="M8.316 14.8077H3.53015C1.14908 14.8077 0 13.706 0 11.4315V3.37615C0 1.10169 1.16092 0 3.53015 0H8.316C10.6971 0 11.8462 1.10169 11.8462 3.37615V11.4315C11.8462 13.706 10.6852 14.8077 8.316 14.8077ZM3.53015 1.77692C2.02569 1.77692 1.77692 2.17969 1.77692 3.37615V11.4315C1.77692 12.628 2.02569 13.0308 3.53015 13.0308H8.316C9.82046 13.0308 10.0692 12.628 10.0692 11.4315V3.37615C10.0692 2.17969 9.82046 1.77692 8.316 1.77692H3.53015Z" fill="#292D32"/>
</svg>
