<svg width="12" height="26" viewBox="0 0 12 26" fill="none" xmlns="http://www.w3.org/2000/svg">
<path d="M8.316 25.4692H3.53015C1.14908 25.4692 0 24.3675 0 22.0931V3.37615C0 1.10169 1.16092 0 3.53015 0H8.316C10.6971 0 11.8462 1.10169 11.8462 3.37615V22.0931C11.8462 24.3675 10.6852 25.4692 8.316 25.4692ZM3.53015 1.77692C2.02569 1.77692 1.77692 2.17969 1.77692 3.37615V22.0931C1.77692 23.2895 2.02569 23.6923 3.53015 23.6923H8.316C9.82046 23.6923 10.0692 23.2895 10.0692 22.0931V3.37615C10.0692 2.17969 9.82046 1.77692 8.316 1.77692H3.53015Z" fill="#292D32"/>
</svg>
