<svg width="12" height="9" viewBox="0 0 12 9" fill="none" xmlns="http://www.w3.org/2000/svg">
<path d="M8.316 8.88462H3.53015C1.14908 8.88462 0 7.78292 0 5.50846V3.37615C0 1.10169 1.16092 0 3.53015 0H8.316C10.6971 0 11.8462 1.10169 11.8462 3.37615V5.50846C11.8462 7.78292 10.6852 8.88462 8.316 8.88462ZM3.53015 1.77692C2.02569 1.77692 1.77692 2.17969 1.77692 3.37615V5.50846C1.77692 6.70492 2.02569 7.10769 3.53015 7.10769H8.316C9.82046 7.10769 10.0692 6.70492 10.0692 5.50846V3.37615C10.0692 2.17969 9.82046 1.77692 8.316 1.77692H3.53015Z" fill="#292D32"/>
</svg>
