<svg width="46" height="46" viewBox="0 0 46 46" fill="none" xmlns="http://www.w3.org/2000/svg">
<path d="M38.7362 14.9892L23.9779 23.5375C23.3837 23.8825 22.6362 23.8825 22.0229 23.5375L7.26458 14.9892C6.21041 14.3758 5.94208 12.9383 6.74708 12.0375C7.30291 11.405 7.93541 10.8875 8.60624 10.5233L18.9946 4.77332C21.2179 3.52749 24.8212 3.52749 27.0446 4.77332L37.4329 10.5233C38.1037 10.8875 38.7362 11.4242 39.2921 12.0375C40.0587 12.9383 39.7904 14.3758 38.7362 14.9892Z" fill="#5932EA"/>
<path d="M21.9084 27.1014V40.1731C21.9084 41.6298 20.4326 42.5881 19.1292 41.9556C15.1809 40.0198 8.53006 36.3973 8.53006 36.3973C6.19173 35.0748 4.27506 31.7398 4.27506 28.9989V19.1089C4.27506 17.5948 5.8659 16.6364 7.16923 17.3839L20.9501 25.3764C21.5251 25.7406 21.9084 26.3923 21.9084 27.1014Z" fill="#5932EA"/>
<path d="M24.0931 27.1014V40.1731C24.0931 41.6298 25.5689 42.5881 26.8723 41.9556C30.8206 40.0198 37.4714 36.3973 37.4714 36.3973C39.8098 35.0748 41.7264 31.7398 41.7264 28.9989V19.1089C41.7264 17.5948 40.1356 16.6364 38.8323 17.3839L25.0514 25.3764C24.4764 25.7406 24.0931 26.3923 24.0931 27.1014Z" fill="#5932EA"/>
</svg>
